<?xml version="1.0" standalone="no"?>
<!DOCTYPE svg PUBLIC "-//W3C//DTD SVG 20010904//EN"
 "http://www.w3.org/TR/2001/REC-SVG-20010904/DTD/svg10.dtd">
<svg version="1.0" xmlns="http://www.w3.org/2000/svg"
 width="1250.000000pt" height="325.000000pt" viewBox="0 0 1250.000000 325.000000"
 preserveAspectRatio="xMidYMid meet">

<g transform="translate(0.000000,325.000000) scale(0.100000,-0.100000)"
fill="#000000" stroke="none">
<path d="M966 2990 c-410 -86 -686 -421 -686 -831 0 -217 76 -408 228 -570 87
-93 182 -158 295 -205 149 -60 196 -64 810 -64 404 0 561 -3 591 -12 54 -16
131 -93 145 -144 32 -116 -6 -213 -109 -277 l-35 -22 -859 -5 -860 -5 -117
-308 -116 -308 991 4 c873 3 999 5 1057 20 174 43 305 115 423 232 97 97 163
203 207 335 27 81 33 114 37 222 6 167 -18 277 -91 422 -44 87 -65 115 -152
201 -102 102 -169 149 -273 191 -147 59 -126 57 -797 63 -615 6 -620 6 -661
28 -79 42 -124 117 -124 205 1 86 48 164 125 206 27 15 114 17 889 22 l859 5
113 300 c63 165 114 303 114 308 0 4 -431 7 -957 6 -895 0 -964 -2 -1047 -19z"/>
<path d="M3045 2993 c-24 -60 -225 -596 -225 -600 0 -2 8 -3 18 -2 9 1 182 1
385 0 l367 -1 0 -1072 0 -1073 305 3 305 3 0 1069 0 1070 308 2 307 3 112 295
c61 162 112 301 112 308 1 9 -204 12 -993 12 -937 0 -994 -1 -1001 -17z"/>
<path d="M5008 2703 l-115 -308 936 -5 c1048 -6 964 1 1033 -80 48 -56 58 -98
58 -248 l0 -131 -782 -3 c-782 -4 -783 -4 -858 -26 -323 -99 -549 -349 -605
-668 -26 -152 -17 -273 34 -421 72 -211 238 -393 443 -487 162 -75 70 -70
1286 -76 l1093 -5 -3 1035 -3 1035 -23 73 c-91 296 -311 508 -611 590 l-96 27
-836 3 -835 3 -116 -308z m1912 -1613 l0 -230 -735 0 c-595 0 -742 3 -768 13
-81 34 -147 130 -146 212 0 90 53 174 133 211 l51 24 733 0 732 0 0 -230z"/>
<path d="M7760 3007 c0 -2 -51 -139 -114 -305 -62 -165 -111 -304 -108 -307 3
-3 175 -5 381 -5 l376 1 5 -1073 c3 -590 8 -1072 13 -1070 4 1 140 2 302 2
l295 0 0 1070 0 1070 305 0 c281 0 305 1 314 18 5 10 57 146 116 302 59 157
109 288 112 293 2 4 -446 7 -996 7 -551 0 -1001 -2 -1001 -3z"/>
<path d="M9722 2708 c-62 -167 -113 -306 -112 -310 0 -5 415 -8 923 -8 877 0
924 -1 962 -19 22 -10 54 -34 72 -52 54 -57 63 -92 63 -249 l0 -140 -742 0
c-467 0 -767 -4 -808 -11 -554 -88 -871 -700 -621 -1199 132 -264 383 -439
671 -468 41 -4 535 -6 1098 -4 l1023 2 -4 1013 -3 1012 -22 85 c-90 340 -349
574 -701 634 -82 14 -204 16 -890 16 l-796 0 -113 -302z m1908 -1618 l0 -230
-737 0 -738 1 -45 23 c-58 29 -105 92 -120 159 -24 104 33 212 134 258 39 18
82 19 774 19 l732 0 0 -230z"/>
</g>
</svg>
